<svg width="169" height="137" viewBox="0 0 169 137" fill="none" xmlns="http://www.w3.org/2000/svg">
<path d="M167.536 76.1301C166.551 69.1929 164.148 62.6141 160.393 56.5786C157.118 51.3112 152.916 46.6264 147.9 42.6447L147.914 42.6322L95.2382 2.17418C95.1945 2.13603 95.1494 2.10052 95.1195 2.0798C93.3678 0.738208 90.9967 0 88.445 0C85.8904 0 83.4265 0.739852 81.5108 2.08375C79.4514 3.52235 78.2742 5.43117 78.192 7.46329C78.1167 9.35863 79.021 11.1826 80.745 12.6048C84.1352 15.2794 87.5181 18.0129 90.905 20.7491C94.1922 23.4059 97.5794 26.1421 100.95 28.8059L36.4308 28.7621C29.0524 28.7621 24.0283 32.2269 22.9948 38.0277C22.5407 40.5685 23.342 43.3622 25.1335 45.5019C27.0341 47.7704 29.7936 49.0216 32.9032 49.0216L37.8218 49.0245C44.6166 49.0245 51.4413 49.0081 58.2568 48.9916L64.7563 48.9765L6.19985 92.2983L5.96737 92.468C2.69657 94.9756 0.555277 98.49 0.093281 102.111C-0.256915 104.854 0.382974 107.36 1.94455 109.362C3.80569 111.748 6.7115 113.061 10.1273 113.061C13.483 113.061 16.907 111.79 19.773 109.474L51.3946 83.596C51.2594 84.8596 51.0954 86.7136 51.1141 88.0591C51.1496 90.1895 51.8336 94.4642 52.9164 97.9346C55.1537 105.067 58.9223 111.593 64.1171 117.323C69.5223 123.285 76.1053 128.013 83.682 131.371C91.6925 134.914 100.303 136.712 109.276 136.712H109.359C118.361 136.69 127 134.863 135.036 131.281C142.625 127.883 149.205 123.136 154.59 117.174C159.778 111.415 163.541 104.878 165.774 97.7518C166.878 94.2265 167.589 90.5769 167.884 86.8997C168.16 83.3389 168.041 79.7152 167.536 76.1301ZM109.933 110.314C90.1566 110.314 74.1199 95.9686 74.1199 78.2713C74.1199 60.5757 90.1569 46.2302 109.933 46.2302C129.708 46.2302 145.744 60.5757 145.744 78.2713C145.744 95.9686 129.708 110.314 109.933 110.314ZM130.585 75.4556C130.876 80.7379 128.766 85.6419 125.062 89.2725C121.293 92.9711 115.915 95.2942 109.902 95.2942C103.891 95.2942 98.5129 92.9711 94.743 89.2725C91.0398 85.6419 88.9343 80.7382 89.224 75.4599C89.5084 70.3293 92.0111 65.8004 95.7807 62.5937C99.4876 59.4407 104.465 57.5167 109.902 57.5167C115.34 57.5167 120.316 59.441 124.023 62.5937C127.794 65.8004 130.298 70.3263 130.585 75.4556Z" fill="white"/>
</svg>
