<svg width="81" height="149" viewBox="0 0 81 149" fill="none" xmlns="http://www.w3.org/2000/svg">
<rect width="81" height="149.936" transform="translate(0 -0.968086)" fill="#090B09"/>
<path d="M11.1407 137.032V24.2228H43.3202C50.3587 24.2228 56.0474 25.7654 60.3862 28.8508C64.7733 31.9362 67.9792 36.2509 70.0039 41.795C72.0287 47.2908 73.0411 53.7508 73.0411 61.175C73.0411 68.3099 72.1733 74.6012 70.4378 80.0488C68.7023 85.4964 65.7856 89.7629 61.6879 92.8483C57.6383 95.9337 52.0943 97.4764 45.0558 97.4764H36.1612V137.032H11.1407ZM36.1612 74.6253H37.6075C42.3319 74.6253 45.2245 73.3719 46.2851 70.865C47.3457 68.3581 47.876 64.9835 47.876 60.7411C47.876 56.8362 47.3457 53.6544 46.2851 51.1957C45.2727 48.6888 42.8381 47.4354 38.9814 47.4354H36.1612V74.6253Z" fill="#C0FF01"/>
</svg>
