<svg width="111" height="161" viewBox="0 0 111 161" fill="none" xmlns="http://www.w3.org/2000/svg">
<path fill-rule="evenodd" clip-rule="evenodd" d="M49.2433 12.4667H30.855C20.6994 12.4667 12.4667 20.6994 12.4667 30.855C12.4667 41.0106 20.6994 49.2433 30.855 49.2433H49.2433V12.4667ZM49.2433 0H61.71H80.0983C97.1396 0 110.953 13.8142 110.953 30.855C110.953 40.9111 106.143 49.8437 98.6967 55.4767C106.143 61.1097 110.953 70.0423 110.953 80.0985C110.953 97.1391 97.1396 110.953 80.0983 110.953C73.2081 110.953 66.8454 108.695 61.71 104.878V110.953V129.342C61.71 146.382 47.8957 160.197 30.855 160.197C13.8142 160.197 0 146.382 0 129.342C0 119.285 4.81064 110.353 12.2562 104.72C4.81064 99.0869 0 90.1544 0 80.0985C0 70.0423 4.81076 61.1097 12.2565 55.4768C4.81076 49.8437 0 40.9111 0 30.855C0 13.8142 13.8142 0 30.855 0H49.2433ZM61.71 12.4667V49.2433H80.0983C90.2543 49.2433 98.486 41.0106 98.486 30.855C98.486 20.6994 90.2543 12.4667 80.0983 12.4667H61.71ZM30.855 98.4865H49.2433V80.1458V80.0985V80.0511V61.7101H30.855C20.6994 61.7101 12.4667 69.9429 12.4667 80.0985C12.4667 90.2297 20.66 98.4474 30.7821 98.4867L30.855 98.4865ZM12.4667 129.342C12.4667 119.21 20.66 110.993 30.7821 110.953L30.855 110.953H49.2433V129.342C49.2433 139.497 41.0106 147.73 30.855 147.73C20.6994 147.73 12.4667 139.497 12.4667 129.342ZM61.71 80.0618C61.7298 69.923 69.955 61.7101 80.0983 61.7101C90.2543 61.7101 98.486 69.9429 98.486 80.0985C98.486 90.2541 90.2543 98.4868 80.0983 98.4868C69.955 98.4868 61.7298 90.2739 61.71 80.1351V80.0618Z" fill="white"/>
</svg>
